
<svg width="86px" height="80px" viewBox="0 0 86 80" version="1.1" xmlns="http://www.w3.org/2000/svg" xmlns:xlink="http://www.w3.org/1999/xlink">
    <!-- Generator: Sketch 44.1 (41455) - http://www.bohemiancoding.com/sketch -->
    <desc>Created with Sketch.</desc>
    <defs></defs>
    <g id="podeg.com" stroke="none" stroke-width="1" fill="none" fill-rule="evenodd">
        <g id="Small-|-768px-|-6-col" transform="translate(-340.000000, -40.000000)">
            <g id="logo" transform="translate(340.000000, 40.000000)">
                <g>
                    <path d="M74.3609118,48.5935685 C74.3609118,41.8677459 70.9844632,33.7943474 46.0843015,33.7943474 L39.9150662,33.7943474 C15.0149044,33.7943474 11.6394044,41.8677459 11.6394044,48.5935685 C11.6394044,52.4532139 13.8545368,58.960099 22.0678529,58.960099 C32.3375809,58.960099 35.4215662,49.7529851 38.0170588,46.0872104 C39.9542721,43.3517612 42.9996838,43.1537656 42.9996838,43.1537656 C42.9996838,43.1537656 46.0460441,43.3517612 47.9829412,46.0872104 C50.5784338,49.7529851 53.6617868,58.960099 63.9315147,58.960099 C72.1454632,58.960099 74.3609118,52.4532139 74.3609118,48.5935685" id="Fill-4" fill="#2A2A2A"></path>
                    <polygon id="Fill-5" fill="#2A2A2A" points="0.0556470588 52.4935111 12.8705956 52.4935111 12.8705956 49.0809423 0.0556470588 49.0809423"></polygon>
                    <polygon id="Fill-6" fill="#2A2A2A" points="73.1297206 52.4935111 85.9440368 52.4935111 85.9440368 49.0809423 73.1297206 49.0809423"></polygon>
                    <polyline id="Fill-7" fill="#3C3C3A" points="35.9179632 38.4342353 50.0820368 38.4342353 35.9179632 38.4342353"></polyline>
                    <polyline id="Fill-8" fill="#3C3C3A" points="35.9179632 40.6826279 50.0820368 40.6826279 35.9179632 40.6826279"></polyline>
                    <path d="M49.0775441,0.35751899 C45.4857794,-0.0968555846 40.3754191,-0.0775002431 36.9218235,0.35751899 L36.9218235,31.7363352 C40.9575,31.6697021 45.0399706,31.6712886 49.0775441,31.7363352 L49.0775441,0.35751899" id="Fill-9" fill="#B32536"></path>
                    <path d="M83.7560956,48.0973102 C84.1165368,44.6025605 84.2910662,41.3508631 84.2910662,38.4878591 C84.2910662,18.3319679 69.9518309,3.8107023 50.9531029,0.632935981 L50.9531029,31.7756805 C65.2455441,32.1570759 76.1375074,34.4527463 77.5659926,48.0973102 L83.7560956,48.0973102" id="Fill-10" fill="#2A2A2A"></path>
                    <path d="M77.6883529,53.4774605 C77.6399779,54.9313322 77.5460735,56.4746828 77.4012647,58.0900605 L82.3007353,58.0900605 C82.5931985,56.5292585 82.8489853,54.9897156 83.0750515,53.4774605 L77.6883529,53.4774605" id="Fill-11" fill="#2A2A2A"></path>
                    <path d="M1.70861765,38.4878591 C1.70861765,41.3508631 1.88093382,44.6025605 2.23821324,48.0973102 L8.43400735,48.0973102 C9.86186029,34.4527463 20.7544559,32.1570759 35.0468971,31.7756805 L35.0468971,0.632935981 C16.0481691,3.8107023 1.70861765,18.3319679 1.70861765,38.4878591" id="Fill-12" fill="#2A2A2A"></path>
                    <path d="M2.91230147,53.4774605 C3.13615441,54.9897156 3.39036029,56.5292585 3.68061029,58.0900605 L8.59525735,58.0900605 C8.45202941,56.4746828 8.35907353,54.9313322 8.31101471,53.4774605 L2.91230147,53.4774605" id="Fill-13" fill="#2A2A2A"></path>
                    <path d="M35.3814118,40.0359691 C35.3814118,44.8319689 33.5210294,49.4747124 30.0860882,52.7851104 C29.0610441,53.7725502 27.9063676,54.6533769 26.6400809,55.283536 C25.3734779,55.9130606 23.999375,56.2947733 22.5114485,56.2947733 C20.8954706,56.2947733 19.6042059,55.9765207 18.56525,55.4659839 C17.0099779,54.6993855 16.0004265,53.4920564 15.3645956,52.1746239 C14.7303456,50.8597299 14.4862574,49.4360018 14.4872059,48.3244975 C14.4872059,47.0159495 14.6484559,45.6705946 15.1654044,44.3855268 C15.5536691,43.4209328 16.1401765,42.4871169 17.0257868,41.6116843 C18.3534118,40.2990114 20.3684044,39.113576 23.4144485,38.2368742 C26.4595441,37.3604898 29.9845956,36.8064828 35.3814118,36.732869 L35.3814118,40.0359691 Z M50.6189044,40.0359691 L50.6189044,36.732869 C56.0157206,36.8064828 59.5404559,37.3604898 62.5855515,38.2368742 C65.6309632,39.113576 67.6459559,40.2990114 68.9742132,41.6116843 C69.8601397,42.4871169 70.4460147,43.4209328 70.8345956,44.3855268 C71.3509118,45.6705946 71.5127941,47.0159495 71.5127941,48.3244975 C71.5137426,49.4360018 71.2693382,50.8597299 70.6354044,52.1746239 C69.9992574,53.4920564 68.9900221,54.6993855 67.43475,55.4659839 C66.3951618,55.9765207 65.1045294,56.2947733 63.4879191,56.2947733 C62.0003088,56.2947733 60.6262059,55.9130606 59.3592868,55.283536 C58.0936324,54.6533769 56.9383235,53.7725502 55.9135956,52.7851104 C52.4786544,49.4747124 50.6189044,44.8319689 50.6189044,40.0359691 Z M24.2984779,39.9442692 C24.9355735,39.7764171 25.3247868,40.6356674 24.7708456,40.9935826 C20.6229265,43.6760425 18.4242353,47.3342021 17.3852794,49.5940175 C17.1336029,50.1435823 16.3086985,49.9877876 16.2792941,49.3845991 C15.9868309,43.2616478 20.7870221,40.8720564 24.2984779,39.9442692 Z M61.7015221,39.9442692 C65.2132941,40.8720564 70.0131691,43.2616478 69.7203897,49.3845991 C69.69225,49.9877876 68.8663971,50.1435823 68.6140882,49.5940175 C67.5760809,47.3342021 65.3764412,43.6760425 61.2288382,40.9935826 C60.6745809,40.6356674 61.0641103,39.7764171 61.7015221,39.9442692 Z M35.3716103,35.6549986 C30.7699779,35.7473331 27.116875,36.1966309 24.2121618,36.9096055 C21.9502353,37.4658336 20.1410735,38.1822985 18.6961471,39.0202896 C16.5293897,40.2742619 15.1859559,41.8131702 14.4084779,43.4390189 C13.6300515,45.0639157 13.4134706,46.754811 13.4134706,48.3244975 C13.4156838,50.007143 13.8864706,52.2333246 15.2732206,54.09112 C15.9665956,55.0173207 16.893625,55.8445236 18.0931985,56.4331164 C19.290875,57.0232956 20.7550882,57.3726437 22.5114485,57.3726437 C24.1843382,57.3726437 25.7285441,56.9404802 27.1175074,56.2487647 C28.5071029,55.5570492 29.7443015,54.607051 30.8300515,53.5618625 C34.2017574,50.3107997 36.1377059,45.8708113 36.4191029,41.2214044 L49.5805809,41.2214044 C49.8626103,45.8708113 51.7976103,50.3107997 55.1699485,53.5618625 C56.2550662,54.607051 57.4925809,55.5570492 58.8824926,56.2487647 C60.2714559,56.9404802 61.8153456,57.3726437 63.4879191,57.3726437 C65.2445956,57.3726437 66.7084926,57.0232956 67.9071176,56.4331164 C69.1057426,55.8445236 70.0330882,55.0173207 70.7267794,54.09112 C72.1135294,52.2333246 72.584,50.007143 72.5865294,48.3244975 C72.5865294,46.754811 72.3699485,45.0639157 71.5908897,43.4390189 C70.8137279,41.8131702 69.4699779,40.2742619 67.3032206,39.0202896 C65.8589265,38.1822985 64.0497647,37.4658336 61.7872059,36.9096055 C58.8824926,36.1966309 55.2293897,35.7473331 50.6277574,35.6549986 L50.6277574,35.6461142 L50.0889926,35.6461142 L49.5448529,35.638499 L49.5448529,35.6461142 L36.4548309,35.6461142 L36.4548309,35.638499 L35.910375,35.6461142 L35.3716103,35.6461142 L35.3716103,35.6549986 L35.3716103,35.6549986 Z" id="Fill-14" fill="#FFFFFF"></path>
                </g>
                <text id="devBS3.com" font-family="Roboto-Bold, Roboto" font-size="12" font-weight="bold" line-spacing="21" letter-spacing="2">
                    <tspan x="0" y="75" fill="#2A2A2A">dev</tspan>
                    <tspan x="25.2363281" y="75" fill="#B32536">BS3</tspan>
                    <tspan x="53.15625" y="75" fill="#2A2A2A">.com</tspan>
                </text>
            </g>
        </g>
    </g>
</svg>