<svg width="670px" height="458px" viewBox="0 0 670 458" version="1.1" xmlns="http://www.w3.org/2000/svg" xmlns:xlink="http://www.w3.org/1999/xlink">
    <!-- Generator: Sketch 44.1 (41455) - http://www.bohemiancoding.com/sketch -->
    <desc>Created with Sketch.</desc>
    <defs></defs>
    <g id="Page-1" stroke="none" stroke-width="1" fill="none" fill-rule="evenodd">
        <g id="logo">
            <path d="M579.323382,377.21787 C579.323382,325.007248 553.018493,262.335782 359.02886,262.335782 L310.966213,262.335782 C116.976581,262.335782 90.6790809,325.007248 90.6790809,377.21787 C90.6790809,407.179186 107.936507,457.69026 171.923971,457.69026 C251.932316,457.69026 275.958713,386.218088 296.179412,357.761735 C311.271654,336.527231 334.997537,334.990248 334.997537,334.990248 C334.997537,334.990248 358.730809,336.527231 373.820588,357.761735 C394.041287,386.218088 418.062757,457.69026 498.071103,457.69026 C562.063493,457.69026 579.323382,407.179186 579.323382,377.21787" id="Fill-4" fill="#2A2A2A"></path>
            <polygon id="Fill-5" fill="#2A2A2A" points="0.433529412 407.492002 100.270919 407.492002 100.270919 381.001213 0.433529412 381.001213"></polygon>
            <polygon id="Fill-6" fill="#2A2A2A" points="569.731544 407.492002 669.564007 407.492002 669.564007 381.001213 569.731544 381.001213"></polygon>
            <polyline id="Fill-7" fill="#3C3C3A" points="279.825993 298.353894 390.174007 298.353894 279.825993 298.353894"></polyline>
            <polyline id="Fill-8" fill="#3C3C3A" points="279.825993 315.807518 390.174007 315.807518 279.825993 315.807518"></polyline>
            <path d="M382.348309,2.77531691 C354.365956,-0.751861996 314.552684,-0.601612056 287.646765,2.77531691 L287.646765,246.360026 C319.0875,245.842772 350.892794,245.855087 382.348309,246.360026 L382.348309,2.77531691" id="Fill-9" fill="#B32536"></path>
            <path d="M652.518419,373.36556 C655.326507,346.236826 656.686213,320.994836 656.686213,298.77016 C656.686213,142.305785 544.973566,29.5813839 396.960221,4.91329965 L396.960221,246.665452 C508.308309,249.626115 593.164301,267.446743 604.293199,373.36556 L652.518419,373.36556" id="Fill-10" fill="#2A2A2A"></path>
            <path d="M605.246471,415.130117 C604.869596,426.416105 604.138015,438.39669 603.009853,450.936402 L641.180147,450.936402 C643.45864,438.820345 645.451397,426.869318 647.21261,415.130117 L605.246471,415.130117" id="Fill-11" fill="#2A2A2A"></path>
            <path d="M13.3113235,298.77016 C13.3113235,320.994836 14.6537868,346.236826 17.4372426,373.36556 L65.7068015,373.36556 C76.8307721,267.446743 161.691691,249.626115 273.039779,246.665452 L273.039779,4.91329965 C125.026434,29.5813839 13.3113235,142.305785 13.3113235,298.77016" id="Fill-12" fill="#2A2A2A"></path>
            <path d="M22.6888603,415.130117 C24.4328309,426.869318 26.4132721,438.820345 28.6745221,450.936402 L66.9630515,450.936402 C65.8472059,438.39669 65.1230147,426.416105 64.7486029,415.130117 L22.6888603,415.130117" id="Fill-13" fill="#2A2A2A"></path>
            <path d="M275.645882,310.787692 C275.645882,348.017657 261.152206,384.057937 234.391618,409.755603 C226.405809,417.420813 217.410074,424.258417 207.544816,429.150161 C197.677096,434.036979 186.971875,437.000104 175.37989,437.000104 C162.790294,437.000104 152.730441,434.529601 144.63625,430.566451 C132.519596,424.615568 124.654485,415.243421 119.700919,405.016572 C114.759669,394.809429 112.858051,383.757437 112.865441,375.12915 C112.865441,364.971269 114.121691,354.527666 118.149081,344.552056 C121.173934,337.06419 125.743235,329.815246 132.642757,323.019515 C142.985882,312.829614 158.684081,303.627421 182.41489,296.821837 C206.138309,290.018717 233.600919,285.718121 275.645882,285.146678 L275.645882,310.787692 Z M394.356581,310.787692 L394.356581,285.146678 C436.401544,285.718121 463.861691,290.018717 487.58511,296.821837 C511.310993,303.627421 527.009191,312.829614 537.357243,323.019515 C544.259228,329.815246 548.823603,337.06419 551.850919,344.552056 C555.873382,354.527666 557.134559,364.971269 557.134559,375.12915 C557.141949,383.757437 555.237868,394.809429 550.299081,405.016572 C545.343051,415.243421 537.480404,424.615568 525.36375,430.566451 C517.264632,434.529601 507.209706,437.000104 494.615184,437.000104 C483.025662,437.000104 472.320441,434.036979 462.450257,429.150161 C452.589926,424.258417 443.589265,417.420813 435.605919,409.755603 C408.845331,384.057937 394.356581,348.017657 394.356581,310.787692 Z M189.302096,310.075852 C194.265515,308.772865 197.297757,315.442977 192.982169,318.22137 C160.666985,339.044533 143.537647,367.441772 135.443456,384.984068 C133.482721,389.250181 127.05614,388.040792 126.827059,383.358413 C124.548566,335.827707 161.945404,317.277997 189.302096,310.075852 Z M480.697904,310.075852 C508.057059,317.277997 545.451434,335.827707 543.170478,383.358413 C542.95125,388.040792 536.517279,389.250181 534.551618,384.984068 C526.464816,367.441772 509.328088,339.044533 477.015368,318.22137 C472.697316,315.442977 475.732022,308.772865 480.697904,310.075852 Z M275.569522,276.779481 C239.719596,277.496247 211.259375,280.984016 188.629632,286.518632 C171.007647,290.836471 156.913015,296.398182 145.656029,302.903265 C128.775478,312.637491 118.309191,324.583592 112.252096,337.204587 C106.18761,349.818193 104.500294,362.944126 104.500294,375.12915 C104.517537,388.191042 108.185294,405.472248 118.989044,419.893779 C124.390919,427.083608 131.613125,433.504946 140.95864,438.074022 C150.289375,442.655414 161.696618,445.367302 175.37989,445.367302 C188.412868,445.367302 200.443309,442.012541 211.264301,436.642953 C222.090221,431.273365 231.72886,423.898802 240.18761,415.785306 C266.455551,390.548242 281.537941,356.081891 283.730221,319.989885 L386.267316,319.989885 C388.464522,356.081891 403.539522,390.548242 429.81239,415.785306 C438.266213,423.898802 447.907316,431.273365 458.735699,436.642953 C469.556691,442.012541 481.584669,445.367302 494.615184,445.367302 C508.300919,445.367302 519.705699,442.655414 529.043824,438.074022 C538.381949,433.504946 545.606618,427.083608 551.010956,419.893779 C561.814706,405.472248 565.48,388.191042 565.499706,375.12915 C565.499706,362.944126 563.81239,349.818193 557.742978,337.204587 C551.688346,324.583592 541.219596,312.637491 524.339044,302.903265 C513.086985,296.398182 498.992353,290.836471 481.365441,286.518632 C458.735699,280.984016 430.275478,277.496247 394.425551,276.779481 L394.425551,276.710513 L390.228199,276.710513 L385.988971,276.651399 L385.988971,276.710513 L284.008566,276.710513 L284.008566,276.651399 L279.766875,276.710513 L275.569522,276.710513 L275.569522,276.779481 L275.569522,276.779481 Z" id="Fill-14" fill="#FFFFFF"></path>
        </g>
    </g>
</svg>